<svg width="18" height="18" viewBox="0 0 18 18" fill="none" xmlns="http://www.w3.org/2000/svg">
<path d="M9.00488 0C13.9678 0 18.0048 4.03709 18.0049 9C18.0049 13.9628 13.9678 18 9.00488 18C7.17431 17.9999 5.47585 17.4554 4.05273 16.5137L0.592773 17.6191L1.71387 14.2754C0.634565 12.7938 1.59907e-05 10.9682 0 9C0 4.03706 4.03706 0 9 0H9.00488ZM5.61328 4.11621C5.2694 4.1163 4.91024 4.21739 4.69336 4.43945C4.42891 4.70928 3.77246 5.33882 3.77246 6.62988C3.77258 7.91999 4.71289 9.16773 4.84082 9.34375C4.97312 9.51815 6.67702 12.2062 9.32227 13.3018C11.391 14.1589 12.0057 14.079 12.4766 13.9785C13.1643 13.8302 14.0263 13.3224 14.2432 12.709C14.4601 12.0951 14.4601 11.5711 14.3965 11.46C14.3329 11.3491 14.1585 11.2855 13.8945 11.1533C13.6302 11.0211 12.3446 10.3868 12.1006 10.3018C11.8625 10.2119 11.6348 10.2433 11.4551 10.4971C11.2011 10.8516 10.9521 11.2119 10.751 11.4287C10.5922 11.5979 10.333 11.6193 10.1162 11.5293C9.82515 11.4077 9.01025 11.1217 8.00488 10.2275C7.22727 9.53468 6.69839 8.67249 6.54492 8.41309C6.39142 8.14863 6.52884 7.99432 6.65039 7.85156C6.78264 7.68754 6.90974 7.57141 7.04199 7.41797C7.17429 7.26461 7.24834 7.18482 7.33301 7.00488C7.42283 6.83041 7.35933 6.65078 7.2959 6.51855C7.23221 6.38569 6.70324 5.09483 6.48633 4.57129C6.31183 4.15364 6.17943 4.1377 5.91504 4.12695C5.81473 4.1205 5.7138 4.11671 5.61328 4.11621Z" fill="#5D5A88"/>
</svg>
